<?xml version="1.0" encoding="iso-8859-1"?>
<!-- Generator: Adobe Illustrator 15.1.0, SVG Export Plug-In . SVG Version: 6.00 Build 0)  -->
<!DOCTYPE svg PUBLIC "-//W3C//DTD SVG 1.1//EN" "http://www.w3.org/Graphics/SVG/1.1/DTD/svg11.dtd">
<svg version="1.1" id="buildings_1" xmlns="http://www.w3.org/2000/svg" xmlns:xlink="http://www.w3.org/1999/xlink" x="0px"
	 y="0px" width="73px" height="162.5px" viewBox="0 0 73 162.5" style="enable-background:new 0 0 73 162.5;" xml:space="preserve">
<g>
	<path style="fill-rule:evenodd;clip-rule:evenodd;fill:#A2BDA2;" d="M60.05,40.9c-2.5-3.267-6.3-6.3-11.399-9.1
		c-8.733-4.8-12.467-11.533-11.2-20.2C38.083,7.267,39.6,3.4,42,0c-1.267,3.233-2.1,6.733-2.5,10.5C38.733,18.033,40.566,23.2,45,26
		c8.6,5.4,14.616,9.883,18.05,13.45c5.4,5.566,7.55,11.25,6.45,17.05c-0.566,2.9-2.667,5.467-6.3,7.7
		c-2.367,1.433-6.334,3.183-11.9,5.25c-6.1,2.233-10.283,3.933-12.55,5.1c-4.167,2.2-6.917,4.684-8.25,7.45
		c-1.633,3.4-0.783,7.583,2.55,12.55c1.5,2.2,5.45,6.783,11.851,13.75c-0.067-1.399,0.066-2.783,0.399-4.149
		c0.7-2.7,2.783-3.934,6.25-3.7c1.733,0.133,3.384,0.533,4.95,1.2c-1.6-0.367-3.2-0.534-4.8-0.5c-3.2,0.066-4.767,1.066-4.7,3
		c0.066,2.533,1.717,6.716,4.95,12.55c2.366,3.233,3.883,6.166,4.55,8.8c1.667,6.667,4.917,14.167,9.75,22.5
		c2.434,4.167,4.684,7.667,6.75,10.5c-1.566-0.833-3.517-1.65-5.85-2.45c-4.667-1.566-8.884-2.25-12.65-2.05
		c-3.733,0.2-7.184,1.684-10.35,4.45c-1.601,1.366-2.817,2.717-3.65,4.05c-0.833-1.167-1.85-2.333-3.05-3.5
		c-2.434-2.333-4.583-3.5-6.45-3.5s-4.183,0.833-6.95,2.5c-1.367,0.833-2.55,1.667-3.55,2.5c-0.067-0.566-0.4-1.167-1-1.8
		c-1.167-1.267-3-2-5.5-2.2c-4-0.333-8.333-0.167-13,0.5c2.167-1,4.817-2.667,7.95-5c6.233-4.667,11.75-10.333,16.55-17
		c2.6-3.6,3.383-7.233,2.35-10.9c-0.7-2.533-2.684-5.85-5.95-9.949c-4.2-5.301-6.85-8.884-7.95-10.75
		c-2.667-4.5-3.934-8.967-3.8-13.4C9.517,82.8,8.3,79.067,6.5,78.8c-1.467-0.2-2.983,0.633-4.55,2.5C1.15,82.233,0.5,83.184,0,84.15
		c0.267-1.301,0.733-2.583,1.4-3.851c1.367-2.533,3.117-3.7,5.25-3.5C8.817,77,10.6,78.133,12,80.2
		c2.267-5.967,6.417-10.684,12.45-14.15c5.466-3.133,11.983-4.983,19.55-5.55c5.667-0.433,10.167-1.65,13.5-3.65
		c3.167-1.867,4.967-4.217,5.4-7.05C63.366,46.933,62.417,43.967,60.05,40.9z"/>
	<g>
		<path style="fill-rule:evenodd;clip-rule:evenodd;fill:#89AA8B;" d="M60.05,40.9c-2.5-3.267-6.3-6.3-11.399-9.1
			c-8.733-4.8-12.467-11.533-11.2-20.2C38.083,7.267,39.6,3.4,42,0c-0.866,1.7-1.65,3.733-2.35,6.1c-1.4,4.8-1.684,8.933-0.851,12.4
			c0.867,3.567,2.45,6.35,4.75,8.35c0.267,0.233,2.467,1.667,6.601,4.3c3.699,2.333,6.949,4.967,9.75,7.9
			c4.166,4.333,6.033,8.2,5.6,11.6c-0.467,3.633-2.866,6.717-7.2,9.25c-3.5,2.067-8.767,3.983-15.8,5.75
			c-6.767,1.7-11.733,3.3-14.9,4.8C23.867,72.217,21.333,74.4,20,77c-1.5,2.9-2.133,6.134-1.9,9.7c0.267,3.899,1.566,8.05,3.9,12.45
			c1.3,2.466,4.733,6.767,10.3,12.899c4.733,5.167,7.467,9.417,8.2,12.75c0.767,3.566,1.033,10.017,0.8,19.351
			c-0.133,5.833-0.434,11.916-0.899,18.25c-1.267-1.801-2.784-3.4-4.55-4.801c1.466-5.166,2.333-11.399,2.6-18.699
			c0.233-7.101-0.167-12.217-1.2-15.351c-0.9-2.7-3.2-6.133-6.9-10.3c-5.4-6.134-8.167-9.283-8.3-9.45
			c-2.033-2.767-3.6-6.283-4.7-10.55c-1.1-4.333-1.367-8.083-0.8-11.25c1.067-5.733,4.217-9.85,9.45-12.35
			c6.867-3.333,13.05-5.45,18.55-6.35c3.2-0.5,6.15-1.216,8.851-2.15c2.866-1,5-2.117,6.399-3.35c1.367-1.167,2.417-2.65,3.15-4.45
			l0.7-2.35c-1.4,2.667-2.817,4.583-4.25,5.75c-2.467,2-9.084,3.85-19.851,5.55c-5.8,0.934-10.75,2.567-14.85,4.9
			c-3.3,1.933-5.9,4.216-7.8,6.85c-1.667,2.367-2.8,4.817-3.4,7.35c-0.633,2.7-0.833,6.167-0.6,10.4c0.2,3.733,1.35,7.367,3.45,10.9
			c0.133,0.2,2.033,2.899,5.7,8.1c0.333,0.434,1.383,1.7,3.15,3.8c1.4,1.667,2.466,3.15,3.2,4.45c2.233,3.9,2.783,8.384,1.65,13.45
			c-0.867,3.833-3.683,8.283-8.45,13.35c-3.233,3.434-7.133,6.934-11.7,10.5C6.767,156.384,3.8,156.6,1,157
			c2.167-1,4.817-2.667,7.95-5c6.233-4.667,11.75-10.333,16.55-17c2.6-3.6,3.383-7.233,2.35-10.9c-0.7-2.533-2.684-5.85-5.95-9.949
			c-4.2-5.301-6.85-8.884-7.95-10.75c-2.667-4.5-3.934-8.967-3.8-13.4C9.517,82.8,8.3,79.067,6.5,78.8
			c-1.467-0.2-2.983,0.633-4.55,2.5C1.15,82.233,0.5,83.184,0,84.15c0.267-1.301,0.733-2.583,1.4-3.851
			c1.367-2.533,3.117-3.7,5.25-3.5C8.817,77,10.6,78.133,12,80.2c2.267-5.967,6.417-10.684,12.45-14.15
			c5.466-3.133,11.983-4.983,19.55-5.55c5.667-0.433,10.167-1.65,13.5-3.65c3.167-1.867,4.967-4.217,5.4-7.05
			C63.366,46.933,62.417,43.967,60.05,40.9z"/>
		<path style="fill-rule:evenodd;clip-rule:evenodd;fill:#89AA8B;" d="M27.3,95.3c-1.833-4.533-2.883-7.85-3.15-9.95
			c-0.367-2.699,0.184-5.216,1.65-7.55c1.367-2.133,4.383-4.167,9.05-6.1c1.833-0.733,5.383-1.917,10.65-3.55
			c4-1.233,6.566-2.066,7.7-2.5c2.767-1.066,5.133-2.283,7.1-3.65c3-2.133,5.167-4.2,6.5-6.2c-0.333,0.8-0.866,1.733-1.6,2.8
			c-1.5,2.133-3.3,3.816-5.4,5.05c-2.233,1.333-6.366,3.133-12.399,5.4C42.3,70.917,38.1,72.333,34.8,73.3
			c-2.767,0.8-4.85,2.417-6.25,4.85c-1.533,2.633-1.833,5.683-0.9,9.15c1.133,4.101,2.083,6.934,2.85,8.5
			c1.133,2.233,3.183,4.9,6.15,8c3.866,4.101,6.733,7.384,8.6,9.851c2.733,3.666,5.033,7.716,6.9,12.149
			c1.733,4.101,3.366,9,4.899,14.7c0.767,2.833,1.351,5.267,1.75,7.3c-0.8-1.133-1.816-1.967-3.05-2.5
			c-2.467-1.066-4.783-0.116-6.95,2.851c0.134-2.2,0.084-4.917-0.149-8.15c-0.5-6.5-1.717-12.4-3.65-17.7
			c-1.733-4.666-4.884-9.783-9.45-15.35C30.883,101.283,28.133,97.4,27.3,95.3z"/>
		<path style="fill-rule:evenodd;clip-rule:evenodd;fill:#6B8B6F;" d="M12.9,91.8c-0.233-4.233-0.033-7.7,0.6-10.4
			c0.6-2.533,1.733-4.983,3.4-7.35c1.9-2.633,4.5-4.917,7.8-6.85c4.1-2.333,9.05-3.967,14.85-4.9
			c10.767-1.7,17.384-3.55,19.851-5.55c1.433-1.167,2.85-3.083,4.25-5.75l-0.7,2.35c-0.733,1.8-1.783,3.283-3.15,4.45
			c-1.399,1.233-3.533,2.35-6.399,3.35c-2.7,0.934-5.65,1.65-8.851,2.15c-5.5,0.9-11.683,3.017-18.55,6.35
			c-5.233,2.5-8.383,6.617-9.45,12.35c-0.566,3.167-0.3,6.917,0.8,11.25c1.1,4.267,2.667,7.783,4.7,10.55
			c0.133,0.167,2.9,3.316,8.3,9.45c3.7,4.167,6,7.6,6.9,10.3c1.033,3.134,1.434,8.25,1.2,15.351c-0.267,7.3-1.134,13.533-2.6,18.699
			c-1.833-1.399-3.45-2.1-4.85-2.1c-1.867,0-4.183,0.833-6.95,2.5c-1.367,0.833-2.55,1.667-3.55,2.5c-0.067-0.566-0.4-1.167-1-1.8
			c-1.167-1.267-3-2-5.5-2.2c-1.333-0.1-2.7-0.15-4.1-0.15c4.567-3.566,8.467-7.066,11.7-10.5c4.767-5.066,7.583-9.517,8.45-13.35
			c1.133-5.066,0.583-9.55-1.65-13.45c-0.733-1.3-1.8-2.783-3.2-4.45c-1.767-2.1-2.817-3.366-3.15-3.8
			c-3.667-5.2-5.566-7.899-5.7-8.1C14.25,99.167,13.1,95.533,12.9,91.8z"/>
		<path style="fill-rule:evenodd;clip-rule:evenodd;fill:#C2D6C1;" d="M66.05,48.55c-0.166-1-0.35-1.833-0.55-2.5
			c-0.333-1.033-0.866-2.216-1.6-3.55c-1.167-2.1-4.617-5.383-10.351-9.85C52.184,31.583,50.333,30.367,48,29l-3.1-1.75l4.35,2.3
			c3.167,1.767,5.5,3.25,7,4.45c5.434,4.3,8.85,7.717,10.25,10.25c1.1,2.033,1.767,4.167,2,6.4c-0.167-0.733-0.5-1.183-1-1.35
			c-0.3-0.1-0.667,0.284-1.1,1.15c-0.2,0.433-0.367,0.867-0.5,1.3C66.167,50.683,66.217,49.617,66.05,48.55z"/>
	</g>
</g>
</svg>
